<mxfile host="65bd71144e">
    <diagram id="_STqnr6lMmgfwtDbCKGf" name="Page-1">
        <mxGraphModel dx="1729" dy="2261" grid="1" gridSize="10" guides="1" tooltips="1" connect="1" arrows="1" fold="1" page="1" pageScale="1" pageWidth="827" pageHeight="1169" math="0" shadow="0">
            <root>
                <mxCell id="0"/>
                <mxCell id="1" parent="0"/>
                <mxCell id="4" value="" style="edgeStyle=orthogonalEdgeStyle;html=1;fontFamily=Times New Roman;fontSize=18;" parent="1" source="2" target="3" edge="1">
                    <mxGeometry relative="1" as="geometry"/>
                </mxCell>
                <mxCell id="2" value="&lt;font style=&quot;font-size: 18px;&quot;&gt;Patient&lt;/font&gt;" style="whiteSpace=wrap;html=1;fontFamily=Times New Roman;perimeterSpacing=10;" parent="1" vertex="1">
                    <mxGeometry x="620" y="-600" width="210" height="60" as="geometry"/>
                </mxCell>
                <mxCell id="6" value="" style="edgeStyle=orthogonalEdgeStyle;shape=connector;rounded=1;html=1;labelBackgroundColor=default;strokeColor=default;fontFamily=Times New Roman;fontSize=18;fontColor=default;endArrow=classic;" parent="1" source="3" target="5" edge="1">
                    <mxGeometry relative="1" as="geometry"/>
                </mxCell>
                <mxCell id="8" value="" style="edgeStyle=orthogonalEdgeStyle;shape=connector;rounded=1;html=1;labelBackgroundColor=default;strokeColor=default;fontFamily=Times New Roman;fontSize=18;fontColor=default;endArrow=classic;" parent="1" source="3" target="7" edge="1">
                    <mxGeometry relative="1" as="geometry"/>
                </mxCell>
                <mxCell id="10" value="" style="edgeStyle=orthogonalEdgeStyle;shape=connector;rounded=1;html=1;labelBackgroundColor=default;strokeColor=default;fontFamily=Times New Roman;fontSize=18;fontColor=default;endArrow=classic;" parent="1" source="3" target="9" edge="1">
                    <mxGeometry relative="1" as="geometry"/>
                </mxCell>
                <mxCell id="12" value="" style="edgeStyle=orthogonalEdgeStyle;shape=connector;rounded=1;html=1;labelBackgroundColor=default;strokeColor=default;fontFamily=Times New Roman;fontSize=18;fontColor=default;endArrow=classic;" parent="1" source="3" target="11" edge="1">
                    <mxGeometry relative="1" as="geometry"/>
                </mxCell>
                <mxCell id="14" value="" style="edgeStyle=orthogonalEdgeStyle;shape=connector;rounded=1;html=1;labelBackgroundColor=default;strokeColor=default;fontFamily=Times New Roman;fontSize=18;fontColor=default;endArrow=classic;" parent="1" source="3" target="13" edge="1">
                    <mxGeometry relative="1" as="geometry"/>
                </mxCell>
                <mxCell id="16" value="" style="edgeStyle=orthogonalEdgeStyle;shape=connector;rounded=1;html=1;labelBackgroundColor=default;strokeColor=default;fontFamily=Times New Roman;fontSize=18;fontColor=default;endArrow=classic;" parent="1" source="3" target="15" edge="1">
                    <mxGeometry relative="1" as="geometry"/>
                </mxCell>
                <mxCell id="18" value="" style="edgeStyle=orthogonalEdgeStyle;shape=connector;rounded=1;html=1;labelBackgroundColor=default;strokeColor=default;fontFamily=Times New Roman;fontSize=18;fontColor=default;endArrow=classic;" parent="1" source="3" target="17" edge="1">
                    <mxGeometry relative="1" as="geometry"/>
                </mxCell>
                <mxCell id="22" value="" style="edgeStyle=orthogonalEdgeStyle;shape=connector;rounded=1;html=1;labelBackgroundColor=default;strokeColor=default;fontFamily=Times New Roman;fontSize=18;fontColor=default;endArrow=classic;" parent="1" source="3" target="21" edge="1">
                    <mxGeometry relative="1" as="geometry"/>
                </mxCell>
                <mxCell id="24" value="" style="edgeStyle=orthogonalEdgeStyle;shape=connector;rounded=1;html=1;labelBackgroundColor=default;strokeColor=default;fontFamily=Times New Roman;fontSize=18;fontColor=default;endArrow=classic;" parent="1" source="3" target="23" edge="1">
                    <mxGeometry relative="1" as="geometry"/>
                </mxCell>
                <mxCell id="3" value="&lt;font style=&quot;font-size: 18px;&quot;&gt;Cases&lt;/font&gt;" style="whiteSpace=wrap;html=1;fontFamily=Times New Roman;perimeterSpacing=10;" parent="1" vertex="1">
                    <mxGeometry x="620" y="-490" width="210" height="60" as="geometry"/>
                </mxCell>
                <mxCell id="5" value="&lt;font style=&quot;font-size: 18px;&quot;&gt;Details&lt;/font&gt;" style="whiteSpace=wrap;html=1;fontFamily=Times New Roman;perimeterSpacing=10;" parent="1" vertex="1">
                    <mxGeometry x="261" y="-340" width="130" height="60" as="geometry"/>
                </mxCell>
                <mxCell id="7" value="&lt;span style=&quot;font-size: 18px;&quot;&gt;Chat&lt;/span&gt;" style="whiteSpace=wrap;html=1;fontFamily=Times New Roman;perimeterSpacing=10;" parent="1" vertex="1">
                    <mxGeometry x="409" y="-340" width="100" height="60" as="geometry"/>
                </mxCell>
                <mxCell id="9" value="&lt;span style=&quot;font-size: 18px;&quot;&gt;Lab Scripts&lt;/span&gt;" style="whiteSpace=wrap;html=1;fontFamily=Times New Roman;perimeterSpacing=10;" parent="1" vertex="1">
                    <mxGeometry x="659" y="-340" width="130" height="60" as="geometry"/>
                </mxCell>
                <mxCell id="11" value="&lt;font style=&quot;font-size: 18px;&quot;&gt;Colleagues&lt;/font&gt;" style="whiteSpace=wrap;html=1;fontFamily=Times New Roman;perimeterSpacing=10;" parent="1" vertex="1">
                    <mxGeometry x="531" y="-340" width="120" height="60" as="geometry"/>
                </mxCell>
                <mxCell id="13" value="&lt;font style=&quot;font-size: 18px;&quot;&gt;Referrals&lt;/font&gt;" style="whiteSpace=wrap;html=1;fontFamily=Times New Roman;perimeterSpacing=10;" parent="1" vertex="1">
                    <mxGeometry x="801" y="-340" width="110" height="60" as="geometry"/>
                </mxCell>
                <mxCell id="20" value="" style="edgeStyle=orthogonalEdgeStyle;shape=connector;rounded=1;html=1;labelBackgroundColor=default;strokeColor=default;fontFamily=Times New Roman;fontSize=18;fontColor=default;endArrow=classic;" parent="1" source="15" target="19" edge="1">
                    <mxGeometry relative="1" as="geometry"/>
                </mxCell>
                <mxCell id="15" value="&lt;font style=&quot;font-size: 18px;&quot;&gt;Milsetones&lt;/font&gt;" style="whiteSpace=wrap;html=1;fontFamily=Times New Roman;perimeterSpacing=10;" parent="1" vertex="1">
                    <mxGeometry x="929" y="-340" width="120" height="60" as="geometry"/>
                </mxCell>
                <mxCell id="17" value="&lt;font style=&quot;font-size: 18px;&quot;&gt;Files&lt;/font&gt;" style="whiteSpace=wrap;html=1;fontFamily=Times New Roman;perimeterSpacing=10;" parent="1" vertex="1">
                    <mxGeometry x="1061" y="-340" width="120" height="60" as="geometry"/>
                </mxCell>
                <mxCell id="19" value="&lt;font style=&quot;font-size: 18px;&quot;&gt;Tasks&lt;/font&gt;" style="whiteSpace=wrap;html=1;fontFamily=Times New Roman;perimeterSpacing=10;" parent="1" vertex="1">
                    <mxGeometry x="936" y="-230" width="120" height="60" as="geometry"/>
                </mxCell>
                <mxCell id="21" value="&lt;font style=&quot;font-size: 18px;&quot;&gt;Emails&lt;/font&gt;" style="whiteSpace=wrap;html=1;fontFamily=Times New Roman;perimeterSpacing=10;" parent="1" vertex="1">
                    <mxGeometry x="1204" y="-340" width="100" height="60" as="geometry"/>
                </mxCell>
                <mxCell id="23" value="&lt;font style=&quot;font-size: 18px;&quot;&gt;Video&lt;/font&gt;" style="whiteSpace=wrap;html=1;fontFamily=Times New Roman;perimeterSpacing=10;" parent="1" vertex="1">
                    <mxGeometry x="1331" y="-340" width="110" height="60" as="geometry"/>
                </mxCell>
                <mxCell id="47" value="" style="edgeStyle=orthogonalEdgeStyle;shape=connector;rounded=1;html=1;labelBackgroundColor=default;strokeColor=default;fontFamily=Times New Roman;fontSize=18;fontColor=default;endArrow=classic;" parent="1" source="26" target="46" edge="1">
                    <mxGeometry relative="1" as="geometry"/>
                </mxCell>
                <mxCell id="49" style="edgeStyle=orthogonalEdgeStyle;shape=connector;rounded=1;html=1;entryX=0;entryY=0.5;entryDx=0;entryDy=0;labelBackgroundColor=default;strokeColor=default;fontFamily=Times New Roman;fontSize=18;fontColor=default;endArrow=classic;" parent="1" source="26" target="38" edge="1">
                    <mxGeometry relative="1" as="geometry"/>
                </mxCell>
                <mxCell id="52" value="" style="edgeStyle=orthogonalEdgeStyle;shape=connector;rounded=1;html=1;labelBackgroundColor=default;strokeColor=default;fontFamily=Times New Roman;fontSize=18;fontColor=default;endArrow=classic;" parent="1" source="26" target="51" edge="1">
                    <mxGeometry relative="1" as="geometry"/>
                </mxCell>
                <mxCell id="54" value="" style="edgeStyle=orthogonalEdgeStyle;shape=connector;rounded=1;html=1;labelBackgroundColor=default;strokeColor=default;fontFamily=Times New Roman;fontSize=18;fontColor=default;endArrow=classic;" parent="1" source="26" target="53" edge="1">
                    <mxGeometry relative="1" as="geometry"/>
                </mxCell>
                <mxCell id="26" value="&lt;font style=&quot;font-size: 18px;&quot;&gt;User&lt;/font&gt;" style="whiteSpace=wrap;html=1;fontFamily=Times New Roman;perimeterSpacing=10;" parent="1" vertex="1">
                    <mxGeometry x="620" y="-803" width="210" height="60" as="geometry"/>
                </mxCell>
                <mxCell id="27" value="&lt;font style=&quot;font-size: 18px;&quot;&gt;Signup&lt;/font&gt;" style="whiteSpace=wrap;html=1;fontFamily=Times New Roman;perimeterSpacing=10;" parent="1" vertex="1">
                    <mxGeometry x="960" y="-1100" width="210" height="60" as="geometry"/>
                </mxCell>
                <mxCell id="29" value="&lt;font style=&quot;font-size: 18px;&quot;&gt;Login&lt;/font&gt;" style="whiteSpace=wrap;html=1;fontFamily=Times New Roman;perimeterSpacing=10;" parent="1" vertex="1">
                    <mxGeometry x="960" y="-1026" width="210" height="60" as="geometry"/>
                </mxCell>
                <mxCell id="32" value="&lt;font style=&quot;font-size: 18px;&quot;&gt;Account&lt;/font&gt;" style="whiteSpace=wrap;html=1;fontFamily=Times New Roman;perimeterSpacing=10;" parent="1" vertex="1">
                    <mxGeometry x="960" y="-951" width="210" height="60" as="geometry"/>
                </mxCell>
                <mxCell id="34" value="&lt;font style=&quot;font-size: 18px;&quot;&gt;Practices&lt;/font&gt;" style="whiteSpace=wrap;html=1;fontFamily=Times New Roman;perimeterSpacing=10;" parent="1" vertex="1">
                    <mxGeometry x="960" y="-877" width="210" height="60" as="geometry"/>
                </mxCell>
                <mxCell id="38" value="&lt;font style=&quot;font-size: 18px;&quot;&gt;Roles&lt;/font&gt;" style="whiteSpace=wrap;html=1;fontFamily=Times New Roman;perimeterSpacing=10;" parent="1" vertex="1">
                    <mxGeometry x="960" y="-803" width="210" height="60" as="geometry"/>
                </mxCell>
                <mxCell id="40" value="&lt;font style=&quot;font-size: 18px;&quot;&gt;Sub Members&lt;/font&gt;" style="whiteSpace=wrap;html=1;fontFamily=Times New Roman;perimeterSpacing=10;" parent="1" vertex="1">
                    <mxGeometry x="960" y="-729" width="210" height="60" as="geometry"/>
                </mxCell>
                <mxCell id="42" value="&lt;font style=&quot;font-size: 18px;&quot;&gt;Purchases&lt;/font&gt;" style="whiteSpace=wrap;html=1;fontFamily=Times New Roman;perimeterSpacing=10;" parent="1" vertex="1">
                    <mxGeometry x="960" y="-654" width="210" height="60" as="geometry"/>
                </mxCell>
                <mxCell id="44" value="&lt;font style=&quot;font-size: 18px;&quot;&gt;Usage&lt;/font&gt;" style="whiteSpace=wrap;html=1;fontFamily=Times New Roman;perimeterSpacing=10;" parent="1" vertex="1">
                    <mxGeometry x="960" y="-580" width="210" height="60" as="geometry"/>
                </mxCell>
                <mxCell id="48" style="edgeStyle=orthogonalEdgeStyle;shape=connector;rounded=1;html=1;entryX=0.5;entryY=0;entryDx=0;entryDy=0;labelBackgroundColor=default;strokeColor=default;fontFamily=Times New Roman;fontSize=18;fontColor=default;endArrow=classic;" parent="1" source="46" target="2" edge="1">
                    <mxGeometry relative="1" as="geometry"/>
                </mxCell>
                <mxCell id="46" value="&lt;font style=&quot;font-size: 18px;&quot;&gt;Dashboard&lt;/font&gt;" style="whiteSpace=wrap;html=1;fontFamily=Times New Roman;perimeterSpacing=10;" parent="1" vertex="1">
                    <mxGeometry x="620" y="-700" width="210" height="60" as="geometry"/>
                </mxCell>
                <mxCell id="51" value="&lt;font style=&quot;font-size: 18px;&quot;&gt;Members&lt;/font&gt;" style="whiteSpace=wrap;html=1;fontFamily=Times New Roman;perimeterSpacing=10;" parent="1" vertex="1">
                    <mxGeometry x="440" y="-700" width="150" height="60" as="geometry"/>
                </mxCell>
                <mxCell id="53" value="&lt;font style=&quot;font-size: 18px;&quot;&gt;Tutorials&lt;/font&gt;" style="whiteSpace=wrap;html=1;fontFamily=Times New Roman;perimeterSpacing=10;" parent="1" vertex="1">
                    <mxGeometry x="250" y="-700" width="159" height="60" as="geometry"/>
                </mxCell>
            </root>
        </mxGraphModel>
    </diagram>
</mxfile>